<svg
  version="1.0"
  xmlns="http://www.w3.org/2000/svg"
  width="100.000000pt"
  height="100.000000pt"
  viewBox="0 0 100.000000 100.000000"
  preserveAspectRatio="xMidYMid meet"
>
  <g
    transform="translate(0.000000,100.000000) scale(0.100000,-0.100000)"
    stroke="none"
  >
    <path
      d="M475 782 c-204 -75 -376 -141 -383 -145 -7 -5 -12 -20 -12 -35 0 -40
173 -212 213 -212 21 0 76 40 227 165 l200 165 -165 -200 c-127 -153 -165
-206 -165 -227 0 -22 20 -48 93 -121 93 -93 129 -111 155 -79 15 19 282 759
282 783 0 27 -19 44 -49 43 -15 0 -193 -62 -396 -137z"
    ></path>
  </g>
</svg>
